# xmcd CD database file
#
# Track frame offsets:
#	150
#	13990
#	27090
#	42220
#	55328
#	68590
#	84632
#	97291
#	109538
#	123821
#	137652
#	151786
#	166414
#	179598
#
# Disc length: 2578 seconds
#
# Revision: 0
# Processed by: cddbd v1.5.1PL0 Copyright (c) Steve Scherf et al.
# Submitted via: CDex 1.51
#
DISCID=b40a100e
DTITLE=Various Artist - Cheek to Cheek [CD2]
DYEAR=2001
DGENRE=Love Songs
TTITLE0=They Can't Take That Away From Me--Fred Astaire
TTITLE1=Embraceable You--Judy Garland
TTITLE2=The Man I Love--Lena Horne
TTITLE3=You Go To My Head--Billie Holiday
TTITLE4=We'll Be Together Again--Frankie Laine
TTITLE5=I've Got a Crush On You--June Christy
TTITLE6=Isn't This a Lovely Day--Ginger Rogers
TTITLE7=That Old Feeling--Peggy Lee
TTITLE8=I'm Falling in Love--Bing Crosby and Francis Langford
TTITLE9=Say It With a Kiss--Maxine Sullivan
TTITLE10=You Go To My Head--Marlene Dietrich
TTITLE11=Moonlight and Roses--Vaughn Monroe
TTITLE12=I Love You (Porgy)--Billie Holiday
TTITLE13=Stardust--The Mills Brothers
EXTD=YEAR: 2001
EXTT0=
EXTT1=
EXTT2=
EXTT3=
EXTT4=
EXTT5=
EXTT6=
EXTT7=
EXTT8=
EXTT9=
EXTT10=
EXTT11=
EXTT12=
EXTT13=
PLAYORDER=
